<svg xmlns="http://www.w3.org/2000/svg" viewBox="0 0 100 100" width="32" height="32" role="img" aria-labelledby="title">
  <title id="title">Econ Simulator icon</title>
  <defs>
    <radialGradient id="bgGradient" cx="50%" cy="32%" r="72%">
      <stop offset="0%" stop-color="#2563eb" />
      <stop offset="100%" stop-color="#0f172a" />
    </radialGradient>
    <linearGradient id="accentGradient" x1="0%" y1="0%" x2="100%" y2="0%">
      <stop offset="0%" stop-color="#38bdf8" />
      <stop offset="100%" stop-color="#22d3ee" />
    </linearGradient>
  </defs>
  <circle cx="50" cy="50" r="47" fill="url(#bgGradient)" />
  <circle cx="50" cy="50" r="44" fill="none" stroke="rgba(255,255,255,0.15)" stroke-width="3" />
  <path fill="rgba(15,23,42,0.35)" d="M24 74c9 7 19 10 26 10s17-3 26-10c-7 2-17 3-26 3s-19-1-26-3Z" />
  <path fill="#f8fafc" d="M34 30h33c1.7 0 3 1.3 3 3s-1.3 3-3 3H44v9h19c1.7 0 3 1.3 3 3s-1.3 3-3 3H44v11h23c1.7 0 3 1.3 3 3s-1.3 3-3 3H34c-1.7 0-3-1.3-3-3V33c0-1.7 1.3-3 3-3Z" />
  <path d="M36 71h28" stroke="url(#accentGradient)" stroke-width="3.2" stroke-linecap="round" />
  <circle cx="70" cy="66" r="3.4" fill="url(#accentGradient)" />
</svg>
