<svg xmlns="http://www.w3.org/2000/svg" viewBox="0 0 100 100" width="32" height="32" role="img" aria-labelledby="titleLight">
  <title id="titleLight">Econ Simulator icon (dark theme)</title>
  <defs>
    <radialGradient id="lightBgGradient" cx="48%" cy="30%" r="74%">
      <stop offset="0%" stop-color="#f8fafc" />
      <stop offset="100%" stop-color="#cbd5f5" />
    </radialGradient>
    <linearGradient id="lightAccentGradient" x1="100%" y1="0%" x2="0%" y2="0%">
      <stop offset="0%" stop-color="#38bdf8" />
      <stop offset="100%" stop-color="#3b82f6" />
    </linearGradient>
  </defs>
  <circle cx="50" cy="50" r="47" fill="url(#lightBgGradient)" />
  <circle cx="50" cy="50" r="44" fill="none" stroke="rgba(15,23,42,0.24)" stroke-width="3" />
  <path fill="rgba(255,255,255,0.45)" d="M24 74c9 7 19 10 26 10s17-3 26-10c-7 2-17 3-26 3s-19-1-26-3Z" />
  <path fill="#0f172a" d="M34 30h33c1.7 0 3 1.3 3 3s-1.3 3-3 3H44v9h19c1.7 0 3 1.3 3 3s-1.3 3-3 3H44v11h23c1.7 0 3 1.3 3 3s-1.3 3-3 3H34c-1.7 0-3-1.3-3-3V33c0-1.7 1.3-3 3-3Z" />
  <path d="M36 71h28" stroke="url(#lightAccentGradient)" stroke-width="3.2" stroke-linecap="round" />
  <circle cx="30" cy="34" r="3.4" fill="url(#lightAccentGradient)" />
</svg>
